<svg id="Шар_1" data-name="Шар 1" xmlns="http://www.w3.org/2000/svg" viewBox="0 0 380.797 115.669">
  <title>logo-atelier</title>
  <g>
    <path d="M232.3,173.88c0,.1-.146.174-.436.218a37.572,37.572,0,0,1-4.154.131,36.915,36.915,0,0,1-3.872-.131,2.184,2.184,0,0,1-.543-.109.958.958,0,0,1-.305-.435q-.327-.849-.957-2.524-.847-2.174-2.654-6.416a1.917,1.917,0,0,0-1.805-.935q.653.043-2.24.044-.327,0-.326,1.109,0,1.479.271,4.415t.272,4.416q0,.369-.2.435l-.609.044q-1.282.086-4,.087a28.771,28.771,0,0,1-3.741-.131q-.631-.131-.631-.674,0-2.394.229-7.222t.228-7.243q0-9.2-.413-14.355l-.022-.305q-.022-.369.685-.5t6.645-.262q4.023-.087,6.417-.087a13.59,13.59,0,0,1,8.091,2.24,8.394,8.394,0,0,1,3.545,7.288,11.773,11.773,0,0,1-.913,5.067,10.329,10.329,0,0,1-3.372,3.677c-.333.231-.5.449-.5.652q0-.022,2.653,5.459T232.3,173.88Zm-9.136-19.511a3.9,3.9,0,0,0-1.74-3.676,8.725,8.725,0,0,0-4.22-.783q-2.067,0-2.2.631a37.432,37.432,0,0,0-.131,4.264q0,.5.021,1.478c.015.654.022,1.139.022,1.458,0,.072.232.145.7.217a19.008,19.008,0,0,0,2.784.2Q223.166,158.154,223.166,154.369Z" transform="translate(-11.522 -59.06)" style="fill: #e6332a"/>
    <path d="M254.53,162.287q0,2.2-1.413,2.5-.24.043-4.5.479-2.567.282-7.656.674a3.083,3.083,0,0,0,1.849,2.154,6.53,6.53,0,0,0,2.871.608,8.211,8.211,0,0,0,3.893-1.044l1.654-1.044a6.5,6.5,0,0,1,1.533,2.219,8.162,8.162,0,0,1,1.077,2.545q0,.151-.326.5-2.655,2.85-8.244,2.85a11.61,11.61,0,0,1-8.353-3.024,10.719,10.719,0,0,1-3.263-8.2,11.7,11.7,0,0,1,2.915-8.2A10.234,10.234,0,0,1,244.525,152a9.446,9.446,0,0,1,7.091,3.045A10.115,10.115,0,0,1,254.53,162.287Zm-7.612-1.327a3.366,3.366,0,0,0-.957-2.371,3.023,3.023,0,0,0-2.284-1.023,2.745,2.745,0,0,0-2.262,1.154,3.958,3.958,0,0,0-.827,2.5.53.53,0,0,0,.609.588,38.134,38.134,0,0,0,5-.5C246.679,161.235,246.918,161.12,246.918,160.96Z" transform="translate(-11.522 -59.06)" style="fill: #e6332a"/>
    <path d="M271.476,167.725a18.069,18.069,0,0,1-.163,1.979,17.819,17.819,0,0,0-.164,1.946,1.54,1.54,0,0,1-.13.794,2.607,2.607,0,0,1-.718.5,12.681,12.681,0,0,1-6.221,1.544q-6.285,0-6.286-4.806,0-1.435.109-4.319t.109-4.317q0-.957-1.11-.957h-.283q-.2.021-.282.021-.828,0-.827-.587,0-.346.054-1.065t.055-1.066q0-.458-.055-1.392t-.054-1.393q0-.435,1.392-.478.783-.021.849-.435a16.16,16.16,0,0,0,.087-2.61q-.089-2.805-.087-2.676,0-2.521.478-2.522a7.815,7.815,0,0,1,1.675.26,15.518,15.518,0,0,0,1.718.327q1.108.151,3.35.413c.362.029.544.152.544.37q0,.87-.142,2.632t-.141,2.653q0,1.066.63,1.066.762,0,2.306-.065t2.328-.065c.318,0,.479.108.479.326,0,.334-.038.834-.11,1.5s-.108,1.167-.108,1.5.007.855.021,1.522.022,1.175.022,1.523c0,.3-.21.457-.63.457-.291,0-.776-.011-1.458-.034s-1.167-.032-1.457-.032h-1.632c-.217,0-.326.32-.326.957v1.544q.022,1.044.022,1.545a5.4,5.4,0,0,0,.413,2.524,2.519,2.519,0,0,0,2.306.934,7.008,7.008,0,0,0,1.555-.25,7.046,7.046,0,0,1,1.425-.25C271.323,167.246,271.476,167.406,271.476,167.725Z" transform="translate(-11.522 -59.06)" style="fill: #e6332a"/>
    <path d="M288.18,160.547q0,.847-.935.848-.414,0-1.208-.054t-1.184-.055a3.88,3.88,0,0,0-2.458.566,3,3,0,0,0-.654,2.284q0,.936.033,2.839t.033,2.838q0,.63.087,1.881t.086,1.86q0,.522-.717.588-1.044.086-3.2.087a33.037,33.037,0,0,1-3.305-.131q-.718-.087-.718-.718,0-1.74.021-5.209t.022-5.21a31.631,31.631,0,0,0-.935-8.418,1.556,1.556,0,0,1-.044-.326.427.427,0,0,1,.327-.435q1.2-.131,3.5-.478,3.436-.675,3.545-.675.391,0,.5,1.371t.392,1.37q-.3,0,1.783-1.142a8.393,8.393,0,0,1,4.025-1.142q1.216,0,1.217.522a16.979,16.979,0,0,1-.13,1.784q-.13,1.239-.153,1.784,0,.63.023,1.675Q288.179,160.133,288.18,160.547Z" transform="translate(-11.522 -59.06)" style="fill: #e6332a"/>
    <path d="M311.649,163.4a10.992,10.992,0,0,1-3.034,8.048,11.767,11.767,0,0,1-15.845.043,10.513,10.513,0,0,1-3.089-7.83,11.463,11.463,0,0,1,2.958-8.189,10.465,10.465,0,0,1,8-3.143,10.707,10.707,0,0,1,7.96,3.077A10.881,10.881,0,0,1,311.649,163.4Zm-7.134,0a4.686,4.686,0,0,0-1.066-3.034,3.388,3.388,0,0,0-2.762-1.316,3.5,3.5,0,0,0-2.828,1.349,4.868,4.868,0,0,0,0,6.025,3.616,3.616,0,0,0,5.634,0A4.657,4.657,0,0,0,304.515,163.4Z" transform="translate(-11.522 -59.06)" style="fill: #e6332a"/>
    <path d="M336.663,154.326q0,1.609-.152,4.828t-.153,4.829q0,1.566.11,4.7t.108,4.676a.693.693,0,0,1-.544.74,17.43,17.43,0,0,1-3.5.217,28.164,28.164,0,0,1-3.3-.13.614.614,0,0,1-.523-.522q-.065-.653-.13-1.306-.109-1-.3-1,.3,0-2.2,1.479a9.11,9.11,0,0,1-4.546,1.479q-5.763,0-6.83-5.2a38.638,38.638,0,0,1-.478-7,30.176,30.176,0,0,1,.805-7.831q.24-.891.892-.891,1,0,3.045.021t3.045.023c.449,0,.675.188.675.565a3.534,3.534,0,0,1-.044.456,39.239,39.239,0,0,0-.457,6,36.554,36.554,0,0,0,.239,5.177,2.586,2.586,0,0,0,2.85,2.392,3.538,3.538,0,0,0,2.077-.848,2.468,2.468,0,0,0,1.164-1.762q.042-.8.043-10.919a1.8,1.8,0,0,1,.109-.849q.13-.216.783-.216,1.065,0,3.208.021t3.208.022c.436,0,.689.108.762.326A2.386,2.386,0,0,1,336.663,154.326Z" transform="translate(-11.522 -59.06)" style="fill: #e6332a"/>
    <path d="M361.177,159a21.211,21.211,0,0,1-.239,4.394,25.923,25.923,0,0,1-3,5.242,57.672,57.672,0,0,1-3.719,4.96q-.567.673-3.415.673a18.1,18.1,0,0,1-3.22-.173,1.487,1.487,0,0,1-.761-.435,48.808,48.808,0,0,1-3.719-4.916,29.5,29.5,0,0,1-3.089-5.155,14.009,14.009,0,0,1-.544-4.5q0-.851.022-2.557t.022-2.577q0-.565.76-.565,1.111,0,3.339.065t3.339.065q.5,0,.5.674,0,.611-.087,1.838t-.088,1.861q0,2.261.131,3.7a8.882,8.882,0,0,0,1.262,2.784q1.239,2.154,1.806,2.153.543,0,1.739-2.11a9.371,9.371,0,0,0,1.24-2.7,34.159,34.159,0,0,0,.174-3.742q0-.63-.13-1.9t-.131-1.882c0-.449.153-.674.457-.674q.522,0,1.555.022c.688.015,1.207.021,1.556.021s.873-.028,1.577-.086,1.228-.087,1.576-.087a.7.7,0,0,1,.718.565A21.611,21.611,0,0,1,361.177,159Z" transform="translate(-11.522 -59.06)" style="fill: #e6332a"/>
    <path d="M384.059,162.287q0,2.2-1.413,2.5-.242.043-4.5.479-2.566.282-7.657.674a3.086,3.086,0,0,0,1.849,2.154,6.537,6.537,0,0,0,2.871.608,8.218,8.218,0,0,0,3.894-1.044l1.653-1.044a6.485,6.485,0,0,1,1.533,2.219,8.162,8.162,0,0,1,1.077,2.545q0,.151-.326.5-2.654,2.85-8.244,2.85a11.614,11.614,0,0,1-8.353-3.024,10.722,10.722,0,0,1-3.262-8.2,11.7,11.7,0,0,1,2.915-8.2A10.232,10.232,0,0,1,374.054,152a9.449,9.449,0,0,1,7.091,3.045A10.119,10.119,0,0,1,384.059,162.287Zm-14.9-11.572q-.412.021-.413-.456a5.215,5.215,0,0,1,.044-.544,5.481,5.481,0,0,0,.043-.566,6.385,6.385,0,0,0-.076-.8,6.4,6.4,0,0,1-.076-.805q0-.3.457-.478a40.428,40.428,0,0,0,4.133-2.155q1.325-.956,4.023-2.848a1.478,1.478,0,0,1,.435-.218,1.139,1.139,0,0,1,.371.218q.5.52,1.588,1.478.608.35,1.783,1.109c.231.161.347.305.347.436s-.1.269-.3.456a19.479,19.479,0,0,1-5.743,3.426,19.738,19.738,0,0,1-6.416,1.751Zm7.287,10.245a3.366,3.366,0,0,0-.957-2.371,3.021,3.021,0,0,0-2.284-1.023,2.745,2.745,0,0,0-2.262,1.154,3.964,3.964,0,0,0-.827,2.5c0,.391.2.588.61.588a38.165,38.165,0,0,0,5-.5C376.207,161.235,376.446,161.12,376.446,160.96Z" transform="translate(-11.522 -59.06)" style="fill: #e6332a"/>
  </g>
  <g>
    <path d="M56.607,132.768q-4.252,0-11.073-.2-8.9-.2-11.074-.247l-14.781-.2q-2.224.05-6.377-.2-1.434-.246-1.433-1.532,0-5.388.173-16.141t.172-16.141q0-5.733-.345-17.178t-.347-17.179q0-1.088,1.483-1.088t4.425.149q2.94.148,4.375.148,1.632,0,4.844-.173t4.845-.173c.5,0,.725.314.693.939l-.05.643Q31.543,73.5,30.8,92.132l-.05,13.051q0,6.327.05,9.244c.032.395.066.791.1,1.186a.807.807,0,0,0,.742.741h1.285q4.449,0,13.322-.469t13.323-.47q1.335,0,1.335,1.138a74.76,74.76,0,0,1-1.236,14.583q-.248,1.284-1.038,1.532A10.174,10.174,0,0,1,56.607,132.768Z" transform="translate(-11.522 -59.06)" style="fill: #fdd08e"/>
    <path d="M85.675,74.73a27.4,27.4,0,0,1-3.114,11.964,35.455,35.455,0,0,1-7.218,10.084q-.989.99-1.582.989a1.447,1.447,0,0,1-1.038-.692q-.3-.345-3.065-2.719a13.179,13.179,0,0,1-2.472-2.373q0,.5,2.522-3.386a14.631,14.631,0,0,0,2.521-8.082q0-3.213-3.683-7.045a43.048,43.048,0,0,1-3.683-4.029q0-.791,2.471-2.768L70.6,64.2q1.533-1.432,3.016-2.818A12.818,12.818,0,0,1,76.48,59.06a2.873,2.873,0,0,1,1.434.692Q85.674,65.832,85.675,74.73Z" transform="translate(-11.522 -59.06)" style="fill: #fdd08e"/>
    <path d="M159.778,130.69q0,.891-1.236,1.237-1.482.395-9.195.4a62.569,62.569,0,0,1-9.1-.4,2.666,2.666,0,0,1-2.126-2.225q-1.68-7.119-2.62-7.613-.79-.345-13.248-.346-8.4,0-8.948.445-.84.792-1.878,5.29-.941,4.1-2.274,4.449-1.681.395-11.271.4-7.564,0-7.564-1.433,0-1.286,11.172-31.589,12.111-32.776,13.15-36.038.594-1.88,1.384-1.879,1.335,0,4.128.247t4.177.247q1.335,0,3.93-.172t3.881-.174q.939,0,1.73,1.632,2.423,5.19,14.139,35.593Q159.777,129.356,159.778,130.69ZM124.729,85.656q-1.038,2.175-3.51,9.442-2.67,7.712-2.67,9.047,0,.888,2.967.988,1.532.1,5.042.1,3.263,0,3.609-.79a1.944,1.944,0,0,0,.1-.692q0-1.632-2.275-9A70,70,0,0,0,124.729,85.656Z" transform="translate(-11.522 -59.06)" style="fill: #fdd08e"/>
    <path d="M197.546,117.442a40.373,40.373,0,0,1-.371,4.5,40.85,40.85,0,0,0-.371,4.425,3.452,3.452,0,0,1-.3,1.8,5.931,5.931,0,0,1-1.631,1.137,28.823,28.823,0,0,1-14.137,3.509q-14.287,0-14.287-10.924,0-3.262.247-9.813t.247-9.813q0-2.175-2.521-2.175h-.643c-.3.033-.511.049-.642.049q-1.879,0-1.879-1.335,0-.791.124-2.422t.123-2.422q0-1.038-.123-3.164t-.124-3.164q0-.988,3.164-1.088,1.779-.048,1.928-.988a36.543,36.543,0,0,0,.2-5.932q-.2-6.378-.2-6.081,0-5.734,1.087-5.734a17.616,17.616,0,0,1,3.807.593,35.368,35.368,0,0,0,3.9.742q2.522.345,7.613.938,1.236.1,1.236.841,0,1.978-.321,5.982t-.322,6.031q0,2.423,1.434,2.422,1.73,0,5.241-.148t5.289-.148c.724,0,1.088.247,1.088.741q0,1.138-.248,3.411t-.246,3.411q0,1.186.048,3.46t.049,3.461c0,.692-.476,1.038-1.433,1.038q-.989,0-3.311-.074t-3.313-.074h-3.707q-.743,0-.742,2.175v3.51q.049,2.373.049,3.51,0,4.152.94,5.734,1.333,2.126,5.24,2.126a15.918,15.918,0,0,0,3.535-.569,15.953,15.953,0,0,1,3.236-.569C197.2,116.354,197.546,116.718,197.546,117.442Z" transform="translate(-11.522 -59.06)" style="fill: #fdd08e"/>
    <path d="M248.019,105.084q0,4.993-3.213,5.685-.546.1-10.234,1.087-5.832.644-17.4,1.533a7,7,0,0,0,4.2,4.893,14.8,14.8,0,0,0,6.525,1.385,18.675,18.675,0,0,0,8.849-2.373l3.758-2.373q1.036.495,3.484,5.043t2.448,5.783c0,.232-.248.61-.742,1.138q-6.031,6.475-18.736,6.475-11.766,0-18.982-6.871-7.416-6.971-7.416-18.637,0-11.37,6.625-18.637,6.821-7.513,18.092-7.514A21.473,21.473,0,0,1,241.4,88.622,22.994,22.994,0,0,1,248.019,105.084Zm-17.3-3.016a7.645,7.645,0,0,0-2.176-5.388,6.87,6.87,0,0,0-5.19-2.324,6.241,6.241,0,0,0-5.142,2.62,9,9,0,0,0-1.878,5.685q0,1.335,1.384,1.335a86.846,86.846,0,0,0,11.37-1.137Q230.717,102.612,230.717,102.068Z" transform="translate(-11.522 -59.06)" style="fill: #fdd08e"/>
    <path d="M271.451,102.167q0,13.5.1,20.713,0,1.138.148,3.905.149,2.523.149,3.905,0,1.04-1.237,1.237a53.769,53.769,0,0,1-8.007.4,42.78,42.78,0,0,1-7.564-.4,1.468,1.468,0,0,1-1.236-1.335v-2.125q0-4.4.1-13.175t.1-13.125q0-20.763.049-18.934A156.236,156.236,0,0,0,252.814,64.4a5.036,5.036,0,0,1-.1-.84q0-1.087,1.286-1.087h17.647q1.237,0,1.138,1.038l-.05.889Q271.451,85.755,271.451,102.167Z" transform="translate(-11.522 -59.06)" style="fill: #fdd08e"/>
    <path d="M298.789,109.236q0,3.61.149,10.752t.147,10.7q0,1.04-1.235,1.237a57.574,57.574,0,0,1-7.564.3,58.148,58.148,0,0,1-7.613-.3q-1.089-.2-1.335-.643a5.582,5.582,0,0,1-.1-1.483q0-3.411.149-10.258t.148-10.307a180.512,180.512,0,0,0-1.088-22.344c-.066-.527-.1-.873-.1-1.038q0-.99,1.335-.989,1.382,0,4.226.3t4.277.3q1.433,0,4.3-.247t4.3-.248q1.187,0,1.187.989c0,.132-.034.445-.1.94A201.826,201.826,0,0,0,298.789,109.236Zm1.285-36.73q0,8.6-9.689,8.6a10.647,10.647,0,0,1-6.871-2.174,8.251,8.251,0,0,1,.1-12.755,10.452,10.452,0,0,1,6.773-2.274,10.165,10.165,0,0,1,6.674,2.324A7.774,7.774,0,0,1,300.074,72.506Z" transform="translate(-11.522 -59.06)" style="fill: #fdd08e"/>
    <path d="M353.612,105.084q0,4.993-3.213,5.685-.544.1-10.233,1.087-5.834.644-17.4,1.533a7,7,0,0,0,4.2,4.893,14.8,14.8,0,0,0,6.525,1.385,18.675,18.675,0,0,0,8.849-2.373l3.758-2.373q1.037.495,3.484,5.043t2.447,5.783c0,.232-.247.61-.741,1.138q-6.032,6.475-18.736,6.475-11.766,0-18.983-6.871-7.414-6.971-7.416-18.637,0-11.37,6.625-18.637Q319.6,81.7,330.872,81.7a21.471,21.471,0,0,1,16.116,6.921A22.994,22.994,0,0,1,353.612,105.084Zm-17.3-3.016a7.645,7.645,0,0,0-2.176-5.388,6.871,6.871,0,0,0-5.191-2.324,6.24,6.24,0,0,0-5.141,2.62,9,9,0,0,0-1.878,5.685q0,1.335,1.384,1.335a86.846,86.846,0,0,0,11.37-1.137Q336.311,102.612,336.311,102.068Z" transform="translate(-11.522 -59.06)" style="fill: #fdd08e"/>
    <path d="M391.825,101.129q0,1.927-2.126,1.928-.939,0-2.743-.123t-2.694-.124q-4.106,0-5.586,1.285t-1.484,5.19q0,2.127.075,6.451t.074,6.452q0,1.435.2,4.276t.2,4.226q0,1.186-1.632,1.335-2.373.2-7.266.2-4.7,0-7.515-.3-1.63-.2-1.631-1.632,0-3.954.05-11.839t.049-11.84q0-11.616-2.126-19.131a3.539,3.539,0,0,1-.1-.742.97.97,0,0,1,.742-.989q2.718-.3,7.96-1.087,7.809-1.531,8.057-1.533.89,0,1.137,3.115t.89,3.114q-.693,0,4.053-2.595a19.06,19.06,0,0,1,9.146-2.6q2.768,0,2.768,1.187a38.32,38.32,0,0,1-.3,4.054q-.3,2.817-.345,4.053,0,1.436.05,3.807Q391.824,100.191,391.825,101.129Z" transform="translate(-11.522 -59.06)" style="fill: #fdd08e"/>
  </g>
</svg>
